<svg xmlns="http://www.w3.org/2000/svg" width="64" height="64" viewBox="0 0 64 64">
  <defs>
    <linearGradient id="g" x1="10" y1="6" x2="54" y2="58" gradientUnits="userSpaceOnUse">
      <stop offset="0" stop-color="#0AA3A3"/>
      <stop offset="1" stop-color="#0B5F6A"/>
    </linearGradient>
    <filter id="s" x="-20%" y="-20%" width="140%" height="140%">
      <feDropShadow dx="0" dy="1" stdDeviation="1.2" flood-color="#000" flood-opacity="0.22"/>
    </filter>
  </defs>

  <!-- background -->
  <rect x="6" y="6" width="52" height="52" rx="14" fill="url(#g)" filter="url(#s)"/>

  <!-- stacked "repository" cards -->
  <g fill="none" stroke="#FFFFFF" stroke-width="2.8" stroke-linejoin="round" opacity="0.95">
    <path d="M20 24h24a4 4 0 0 1 4 4v0a4 4 0 0 1-4 4H20a4 4 0 0 1-4-4v0a4 4 0 0 1 4-4z" opacity="0.72"/>
    <path d="M18 30h28a4 4 0 0 1 4 4v0a4 4 0 0 1-4 4H18a4 4 0 0 1-4-4v0a4 4 0 0 1 4-4z" opacity="0.85"/>
    <path d="M16 36h30a4 4 0 0 1 4 4v0a4 4 0 0 1-4 4H16a4 4 0 0 1-4-4v0a4 4 0 0 1 4-4z"/>
  </g>

  <!-- "site" marker dot -->
  <circle cx="46" cy="18" r="5" fill="#FFFFFF" opacity="0.95"/>
  <circle cx="46" cy="18" r="2.2" fill="#0B5F6A" opacity="0.95"/>
</svg>
